#!OML:ASF C:\Vicon Data\Big\jianyuan-13\jianyuan\Session 1\Capture.male.ASF
:FULLY-SPECIFIED
:DEGREES
14
root -7.870405 17.502738 -23.126721 9.523035 10.994951 0.669276
lowerback -14.678031 -4.559726 -1.833160 
upperback -1.026774 -5.862253 1.612752 
thorax 7.476670 -2.933538 1.511873 
lowerneck -4.568215 0.204741 4.996101 
upperneck -1.474071 0.039186 -6.411687 
head 0.331879 -0.046802 -2.919179 
rclavicle 0.000000 0.000000 
rhumerus -56.689734 -23.066684 -66.346656 
rradius 24.344187 
rwrist 39.450812 
rhand -15.426659 -16.379339 
rfingers 0.000000 
rthumb 10.753163 -46.084100 
lclavicle 0.000000 0.000000 
lhumerus -12.643787 -2.795985 95.500143 
lradius 52.884066 
lwrist -23.416671 
lhand -19.791253 2.542574 
lfingers 0.000000 
lthumb 6.541322 32.421460 
rfemur -41.516569 -2.016392 18.055949 
rtibia 30.847156 
rfoot -0.866042 -11.308493 
rtoes -23.787139 
lfemur 12.140621 -3.742131 -14.667104 
ltibia 24.650580 
lfoot 1.989805 -1.715834 
ltoes -56.705021 
15
root -7.881011 17.506276 -23.072266 9.481322 10.779473 0.623585
lowerback -14.589162 -4.527978 -1.863545 
upperback -0.987250 -5.826044 1.720865 
thorax 7.483022 -2.919929 1.655826 
lowerneck -4.582756 0.250836 4.833944 
upperneck -1.581211 0.103684 -6.379910 
head 0.303798 -0.013470 -2.876242 
rclavicle 0.000000 0.000000 
rhumerus -56.122359 -23.113839 -66.341719 
rradius 24.188228 
rwrist 39.596308 
rhand -15.554636 -16.495979 
rfingers 0.000000 
rthumb 10.629718 -46.207132 
lclavicle 0.000000 0.000000 
lhumerus -12.834339 -2.129633 95.610658 
lradius 52.376598 
lwrist -23.382323 
lhand -20.037197 2.603903 
lfingers 0.000000 
lthumb 6.303866 32.490071 
rfemur -41.497751 -2.025834 18.251304 
rtibia 31.184980 
rfoot -1.046629 -10.963744 
rtoes -24.789602 
lfemur 11.870170 -3.476755 -14.495954 
ltibia 25.445053 
lfoot 2.532393 -1.846920 
ltoes -56.700487 
16
root -7.887810 17.512261 -23.019439 9.478808 10.665873 0.538098
lowerback -14.544207 -4.514260 -1.720238 
upperback -0.971077 -5.836695 1.776560 
thorax 7.467536 -2.921786 1.635415 
lowerneck -4.556082 0.299564 4.760247 
upperneck -1.678018 0.169350 -6.363846 
head 0.272149 0.020646 -2.855363 
rclavicle 0.000000 0.000000 
rhumerus -55.661923 -23.282982 -66.296220 
rradius 24.074786 
rwrist 40.003831 
rhand -15.559328 -16.628056 
rfingers 0.000000 
rthumb 10.625229 -46.339414 
lclavicle 0.000000 0.000000 
lhumerus -13.032728 -1.455404 95.630245 
lradius 51.797823 
lwrist -23.295065 
lhand -20.273399 2.620247 
lfingers 0.000000 
lthumb 6.075838 32.513127 
rfemur -41.498703 -2.038308 18.445000 
rtibia 31.497831 
rfoot -1.262565 -10.776305 
rtoes -25.424962 
lfemur 11.495224 -3.431466 -14.335515 
ltibia 26.289480 
lfoot 3.040722 -1.887897 
ltoes -56.787405 
17
root -7.894961 17.516647 -22.969873 9.490524 10.527909 0.494016
lowerback -14.512222 -4.475470 -1.620673 
upperback -0.955249 -5.803729 1.795348 
thorax 7.457107 -2.903138 1.608762 
lowerneck -4.534386 0.318866 4.741468 
upperneck -1.768921 0.193110 -6.351204 
head 0.240893 0.033447 -2.846819 
rclavicle 0.000000 0.000000 
rhumerus -55.228228 -23.472900 -66.256379 
rradius 23.864481 
rwrist 40.592211 
rhand -15.681832 -16.681175 
rfingers 0.000000 
rthumb 10.507064 -46.398519 
lclavicle 0.000000 0.000000 
lhumerus -13.269510 -0.905755 95.602831 
lradius 51.311555 
lwrist -23.359970 
lhand -20.575155 2.757485 
lfingers 0.000000 
lthumb 5.784542 32.658414 
rfemur -41.508990 -2.004141 18.569768 
rtibia 31.786733 
rfoot -1.456365 -10.641743 
rtoes -25.663496 
lfemur 11.145763 -3.560106 -14.309393 
ltibia 27.100583 
lfoot 3.472454 -1.660813 
ltoes -56.403240 
